<svg xmlns="http://www.w3.org/2000/svg" viewBox="0 0 400 400"><path stroke="#2c3e50" stroke-width="1" d="M 5 10 L 15 10 M 10 5 L 10 15 M 5 30 L 15 30 M 10 25 L 10 35 M 5 50 L 15 50 M 10 45 L 10 55 M 5 70 L 15 70 M 10 65 L 10 75 M 5 90 L 15 90 M 10 85 L 10 95 M 5 110 L 15 110 M 10 105 L 10 115 M 5 130 L 15 130 M 10 125 L 10 135 M 5 150 L 15 150 M 10 145 L 10 155 M 5 170 L 15 170 M 10 165 L 10 175 M 5 190 L 15 190 M 10 185 L 10 195 M 5 210 L 15 210 M 10 205 L 10 215 M 5 230 L 15 230 M 10 225 L 10 235 M 5 250 L 15 250 M 10 245 L 10 255 M 5 270 L 15 270 M 10 265 L 10 275 M 5 290 L 15 290 M 10 285 L 10 295 M 5 310 L 15 310 M 10 305 L 10 315 M 5 330 L 15 330 M 10 325 L 10 335 M 5 350 L 15 350 M 10 345 L 10 355 M 5 370 L 15 370 M 10 365 L 10 375 M 5 390 L 15 390 M 10 385 L 10 395 M 25 10 L 35 10 M 30 5 L 30 15 M 25 30 L 35 30 M 30 25 L 30 35 M 25 50 L 35 50 M 30 45 L 30 55 M 25 70 L 35 70 M 30 65 L 30 75 M 25 90 L 35 90 M 30 85 L 30 95 M 25 110 L 35 110 M 30 105 L 30 115 M 25 130 L 35 130 M 30 125 L 30 135 M 25 150 L 35 150 M 30 145 L 30 155 M 25 170 L 35 170 M 30 165 L 30 175 M 25 190 L 35 190 M 30 185 L 30 195 M 25 210 L 35 210 M 30 205 L 30 215 M 25 230 L 35 230 M 30 225 L 30 235 M 25 250 L 35 250 M 30 245 L 30 255 M 25 270 L 35 270 M 30 265 L 30 275 M 25 290 L 35 290 M 30 285 L 30 295 M 25 310 L 35 310 M 30 305 L 30 315 M 25 330 L 35 330 M 30 325 L 30 335 M 25 350 L 35 350 M 30 345 L 30 355 M 25 370 L 35 370 M 30 365 L 30 375 M 25 390 L 35 390 M 30 385 L 30 395 M 45 10 L 55 10 M 50 5 L 50 15 M 45 30 L 55 30 M 50 25 L 50 35 M 45 50 L 55 50 M 50 45 L 50 55 M 45 70 L 55 70 M 50 65 L 50 75 M 45 90 L 55 90 M 50 85 L 50 95 M 45 110 L 55 110 M 50 105 L 50 115 M 45 130 L 55 130 M 50 125 L 50 135 M 45 150 L 55 150 M 50 145 L 50 155 M 45 170 L 55 170 M 50 165 L 50 175 M 45 190 L 55 190 M 50 185 L 50 195 M 45 210 L 55 210 M 50 205 L 50 215 M 45 230 L 55 230 M 50 225 L 50 235 M 45 250 L 55 250 M 50 245 L 50 255 M 45 270 L 55 270 M 50 265 L 50 275 M 45 290 L 55 290 M 50 285 L 50 295 M 45 310 L 55 310 M 50 305 L 50 315 M 45 330 L 55 330 M 50 325 L 50 335 M 45 350 L 55 350 M 50 345 L 50 355 M 45 370 L 55 370 M 50 365 L 50 375 M 45 390 L 55 390 M 50 385 L 50 395 M 65 10 L 75 10 M 70 5 L 70 15 M 65 30 L 75 30 M 70 25 L 70 35 M 65 50 L 75 50 M 70 45 L 70 55 M 65 70 L 75 70 M 70 65 L 70 75 M 65 90 L 75 90 M 70 85 L 70 95 M 65 110 L 75 110 M 70 105 L 70 115 M 65 130 L 75 130 M 70 125 L 70 135 M 65 150 L 75 150 M 70 145 L 70 155 M 65 170 L 75 170 M 70 165 L 70 175 M 65 190 L 75 190 M 70 185 L 70 195 M 65 210 L 75 210 M 70 205 L 70 215 M 65 230 L 75 230 M 70 225 L 70 235 M 65 250 L 75 250 M 70 245 L 70 255 M 65 270 L 75 270 M 70 265 L 70 275 M 65 290 L 75 290 M 70 285 L 70 295 M 65 310 L 75 310 M 70 305 L 70 315 M 65 330 L 75 330 M 70 325 L 70 335 M 65 350 L 75 350 M 70 345 L 70 355 M 65 370 L 75 370 M 70 365 L 70 375 M 65 390 L 75 390 M 70 385 L 70 395 M 85 10 L 95 10 M 90 5 L 90 15 M 85 30 L 95 30 M 90 25 L 90 35 M 85 50 L 95 50 M 90 45 L 90 55 M 85 70 L 95 70 M 90 65 L 90 75 M 85 90 L 95 90 M 90 85 L 90 95 M 85 110 L 95 110 M 90 105 L 90 115 M 85 130 L 95 130 M 90 125 L 90 135 M 85 150 L 95 150 M 90 145 L 90 155 M 85 170 L 95 170 M 90 165 L 90 175 M 85 190 L 95 190 M 90 185 L 90 195 M 85 210 L 95 210 M 90 205 L 90 215 M 85 230 L 95 230 M 90 225 L 90 235 M 85 250 L 95 250 M 90 245 L 90 255 M 85 270 L 95 270 M 90 265 L 90 275 M 85 290 L 95 290 M 90 285 L 90 295 M 85 310 L 95 310 M 90 305 L 90 315 M 85 330 L 95 330 M 90 325 L 90 335 M 85 350 L 95 350 M 90 345 L 90 355 M 85 370 L 95 370 M 90 365 L 90 375 M 85 390 L 95 390 M 90 385 L 90 395 M 105 10 L 115 10 M 110 5 L 110 15 M 105 30 L 115 30 M 110 25 L 110 35 M 105 50 L 115 50 M 110 45 L 110 55 M 105 70 L 115 70 M 110 65 L 110 75 M 105 90 L 115 90 M 110 85 L 110 95 M 105 110 L 115 110 M 110 105 L 110 115 M 105 130 L 115 130 M 110 125 L 110 135 M 105 150 L 115 150 M 110 145 L 110 155 M 105 170 L 115 170 M 110 165 L 110 175 M 105 190 L 115 190 M 110 185 L 110 195 M 105 210 L 115 210 M 110 205 L 110 215 M 105 230 L 115 230 M 110 225 L 110 235 M 105 250 L 115 250 M 110 245 L 110 255 M 105 270 L 115 270 M 110 265 L 110 275 M 105 290 L 115 290 M 110 285 L 110 295 M 105 310 L 115 310 M 110 305 L 110 315 M 105 330 L 115 330 M 110 325 L 110 335 M 105 350 L 115 350 M 110 345 L 110 355 M 105 370 L 115 370 M 110 365 L 110 375 M 105 390 L 115 390 M 110 385 L 110 395 M 125 10 L 135 10 M 130 5 L 130 15 M 125 30 L 135 30 M 130 25 L 130 35 M 125 50 L 135 50 M 130 45 L 130 55 M 125 70 L 135 70 M 130 65 L 130 75 M 125 90 L 135 90 M 130 85 L 130 95 M 125 110 L 135 110 M 130 105 L 130 115 M 125 130 L 135 130 M 130 125 L 130 135 M 125 150 L 135 150 M 130 145 L 130 155 M 125 170 L 135 170 M 130 165 L 130 175 M 125 190 L 135 190 M 130 185 L 130 195 M 125 210 L 135 210 M 130 205 L 130 215 M 125 230 L 135 230 M 130 225 L 130 235 M 125 250 L 135 250 M 130 245 L 130 255 M 125 270 L 135 270 M 130 265 L 130 275 M 125 290 L 135 290 M 130 285 L 130 295 M 125 310 L 135 310 M 130 305 L 130 315 M 125 330 L 135 330 M 130 325 L 130 335 M 125 350 L 135 350 M 130 345 L 130 355 M 125 370 L 135 370 M 130 365 L 130 375 M 125 390 L 135 390 M 130 385 L 130 395 M 145 10 L 155 10 M 150 5 L 150 15 M 145 30 L 155 30 M 150 25 L 150 35 M 145 50 L 155 50 M 150 45 L 150 55 M 145 70 L 155 70 M 150 65 L 150 75 M 145 90 L 155 90 M 150 85 L 150 95 M 145 110 L 155 110 M 150 105 L 150 115 M 145 130 L 155 130 M 150 125 L 150 135 M 145 150 L 155 150 M 150 145 L 150 155 M 145 170 L 155 170 M 150 165 L 150 175 M 145 190 L 155 190 M 150 185 L 150 195 M 145 210 L 155 210 M 150 205 L 150 215 M 145 230 L 155 230 M 150 225 L 150 235 M 145 250 L 155 250 M 150 245 L 150 255 M 145 270 L 155 270 M 150 265 L 150 275 M 145 290 L 155 290 M 150 285 L 150 295 M 145 310 L 155 310 M 150 305 L 150 315 M 145 330 L 155 330 M 150 325 L 150 335 M 145 350 L 155 350 M 150 345 L 150 355 M 145 370 L 155 370 M 150 365 L 150 375 M 145 390 L 155 390 M 150 385 L 150 395 M 165 10 L 175 10 M 170 5 L 170 15 M 165 30 L 175 30 M 170 25 L 170 35 M 165 50 L 175 50 M 170 45 L 170 55 M 165 70 L 175 70 M 170 65 L 170 75 M 165 90 L 175 90 M 170 85 L 170 95 M 165 110 L 175 110 M 170 105 L 170 115 M 165 130 L 175 130 M 170 125 L 170 135 M 165 150 L 175 150 M 170 145 L 170 155 M 165 170 L 175 170 M 170 165 L 170 175 M 165 190 L 175 190 M 170 185 L 170 195 M 165 210 L 175 210 M 170 205 L 170 215 M 165 230 L 175 230 M 170 225 L 170 235 M 165 250 L 175 250 M 170 245 L 170 255 M 165 270 L 175 270 M 170 265 L 170 275 M 165 290 L 175 290 M 170 285 L 170 295 M 165 310 L 175 310 M 170 305 L 170 315 M 165 330 L 175 330 M 170 325 L 170 335 M 165 350 L 175 350 M 170 345 L 170 355 M 165 370 L 175 370 M 170 365 L 170 375 M 165 390 L 175 390 M 170 385 L 170 395 M 185 10 L 195 10 M 190 5 L 190 15 M 185 30 L 195 30 M 190 25 L 190 35 M 185 50 L 195 50 M 190 45 L 190 55 M 185 70 L 195 70 M 190 65 L 190 75 M 185 90 L 195 90 M 190 85 L 190 95 M 185 110 L 195 110 M 190 105 L 190 115 M 185 130 L 195 130 M 190 125 L 190 135 M 185 150 L 195 150 M 190 145 L 190 155 M 185 170 L 195 170 M 190 165 L 190 175 M 185 190 L 195 190 M 190 185 L 190 195 M 185 210 L 195 210 M 190 205 L 190 215 M 185 230 L 195 230 M 190 225 L 190 235 M 185 250 L 195 250 M 190 245 L 190 255 M 185 270 L 195 270 M 190 265 L 190 275 M 185 290 L 195 290 M 190 285 L 190 295 M 185 310 L 195 310 M 190 305 L 190 315 M 185 330 L 195 330 M 190 325 L 190 335 M 185 350 L 195 350 M 190 345 L 190 355 M 185 370 L 195 370 M 190 365 L 190 375 M 185 390 L 195 390 M 190 385 L 190 395 M 205 10 L 215 10 M 210 5 L 210 15 M 205 30 L 215 30 M 210 25 L 210 35 M 205 50 L 215 50 M 210 45 L 210 55 M 205 70 L 215 70 M 210 65 L 210 75 M 205 90 L 215 90 M 210 85 L 210 95 M 205 110 L 215 110 M 210 105 L 210 115 M 205 130 L 215 130 M 210 125 L 210 135 M 205 150 L 215 150 M 210 145 L 210 155 M 205 170 L 215 170 M 210 165 L 210 175 M 205 190 L 215 190 M 210 185 L 210 195 M 205 210 L 215 210 M 210 205 L 210 215 M 205 230 L 215 230 M 210 225 L 210 235 M 205 250 L 215 250 M 210 245 L 210 255 M 205 270 L 215 270 M 210 265 L 210 275 M 205 290 L 215 290 M 210 285 L 210 295 M 205 310 L 215 310 M 210 305 L 210 315 M 205 330 L 215 330 M 210 325 L 210 335 M 205 350 L 215 350 M 210 345 L 210 355 M 205 370 L 215 370 M 210 365 L 210 375 M 205 390 L 215 390 M 210 385 L 210 395 M 225 10 L 235 10 M 230 5 L 230 15 M 225 30 L 235 30 M 230 25 L 230 35 M 225 50 L 235 50 M 230 45 L 230 55 M 225 70 L 235 70 M 230 65 L 230 75 M 225 90 L 235 90 M 230 85 L 230 95 M 225 110 L 235 110 M 230 105 L 230 115 M 225 130 L 235 130 M 230 125 L 230 135 M 225 150 L 235 150 M 230 145 L 230 155 M 225 170 L 235 170 M 230 165 L 230 175 M 225 190 L 235 190 M 230 185 L 230 195 M 225 210 L 235 210 M 230 205 L 230 215 M 225 230 L 235 230 M 230 225 L 230 235 M 225 250 L 235 250 M 230 245 L 230 255 M 225 270 L 235 270 M 230 265 L 230 275 M 225 290 L 235 290 M 230 285 L 230 295 M 225 310 L 235 310 M 230 305 L 230 315 M 225 330 L 235 330 M 230 325 L 230 335 M 225 350 L 235 350 M 230 345 L 230 355 M 225 370 L 235 370 M 230 365 L 230 375 M 225 390 L 235 390 M 230 385 L 230 395 M 245 10 L 255 10 M 250 5 L 250 15 M 245 30 L 255 30 M 250 25 L 250 35 M 245 50 L 255 50 M 250 45 L 250 55 M 245 70 L 255 70 M 250 65 L 250 75 M 245 90 L 255 90 M 250 85 L 250 95 M 245 110 L 255 110 M 250 105 L 250 115 M 245 130 L 255 130 M 250 125 L 250 135 M 245 150 L 255 150 M 250 145 L 250 155 M 245 170 L 255 170 M 250 165 L 250 175 M 245 190 L 255 190 M 250 185 L 250 195 M 245 210 L 255 210 M 250 205 L 250 215 M 245 230 L 255 230 M 250 225 L 250 235 M 245 250 L 255 250 M 250 245 L 250 255 M 245 270 L 255 270 M 250 265 L 250 275 M 245 290 L 255 290 M 250 285 L 250 295 M 245 310 L 255 310 M 250 305 L 250 315 M 245 330 L 255 330 M 250 325 L 250 335 M 245 350 L 255 350 M 250 345 L 250 355 M 245 370 L 255 370 M 250 365 L 250 375 M 245 390 L 255 390 M 250 385 L 250 395 M 265 10 L 275 10 M 270 5 L 270 15 M 265 30 L 275 30 M 270 25 L 270 35 M 265 50 L 275 50 M 270 45 L 270 55 M 265 70 L 275 70 M 270 65 L 270 75 M 265 90 L 275 90 M 270 85 L 270 95 M 265 110 L 275 110 M 270 105 L 270 115 M 265 130 L 275 130 M 270 125 L 270 135 M 265 150 L 275 150 M 270 145 L 270 155 M 265 170 L 275 170 M 270 165 L 270 175 M 265 190 L 275 190 M 270 185 L 270 195 M 265 210 L 275 210 M 270 205 L 270 215 M 265 230 L 275 230 M 270 225 L 270 235 M 265 250 L 275 250 M 270 245 L 270 255 M 265 270 L 275 270 M 270 265 L 270 275 M 265 290 L 275 290 M 270 285 L 270 295 M 265 310 L 275 310 M 270 305 L 270 315 M 265 330 L 275 330 M 270 325 L 270 335 M 265 350 L 275 350 M 270 345 L 270 355 M 265 370 L 275 370 M 270 365 L 270 375 M 265 390 L 275 390 M 270 385 L 270 395 M 285 10 L 295 10 M 290 5 L 290 15 M 285 30 L 295 30 M 290 25 L 290 35 M 285 50 L 295 50 M 290 45 L 290 55 M 285 70 L 295 70 M 290 65 L 290 75 M 285 90 L 295 90 M 290 85 L 290 95 M 285 110 L 295 110 M 290 105 L 290 115 M 285 130 L 295 130 M 290 125 L 290 135 M 285 150 L 295 150 M 290 145 L 290 155 M 285 170 L 295 170 M 290 165 L 290 175 M 285 190 L 295 190 M 290 185 L 290 195 M 285 210 L 295 210 M 290 205 L 290 215 M 285 230 L 295 230 M 290 225 L 290 235 M 285 250 L 295 250 M 290 245 L 290 255 M 285 270 L 295 270 M 290 265 L 290 275 M 285 290 L 295 290 M 290 285 L 290 295 M 285 310 L 295 310 M 290 305 L 290 315 M 285 330 L 295 330 M 290 325 L 290 335 M 285 350 L 295 350 M 290 345 L 290 355 M 285 370 L 295 370 M 290 365 L 290 375 M 285 390 L 295 390 M 290 385 L 290 395 M 305 10 L 315 10 M 310 5 L 310 15 M 305 30 L 315 30 M 310 25 L 310 35 M 305 50 L 315 50 M 310 45 L 310 55 M 305 70 L 315 70 M 310 65 L 310 75 M 305 90 L 315 90 M 310 85 L 310 95 M 305 110 L 315 110 M 310 105 L 310 115 M 305 130 L 315 130 M 310 125 L 310 135 M 305 150 L 315 150 M 310 145 L 310 155 M 305 170 L 315 170 M 310 165 L 310 175 M 305 190 L 315 190 M 310 185 L 310 195 M 305 210 L 315 210 M 310 205 L 310 215 M 305 230 L 315 230 M 310 225 L 310 235 M 305 250 L 315 250 M 310 245 L 310 255 M 305 270 L 315 270 M 310 265 L 310 275 M 305 290 L 315 290 M 310 285 L 310 295 M 305 310 L 315 310 M 310 305 L 310 315 M 305 330 L 315 330 M 310 325 L 310 335 M 305 350 L 315 350 M 310 345 L 310 355 M 305 370 L 315 370 M 310 365 L 310 375 M 305 390 L 315 390 M 310 385 L 310 395 M 325 10 L 335 10 M 330 5 L 330 15 M 325 30 L 335 30 M 330 25 L 330 35 M 325 50 L 335 50 M 330 45 L 330 55 M 325 70 L 335 70 M 330 65 L 330 75 M 325 90 L 335 90 M 330 85 L 330 95 M 325 110 L 335 110 M 330 105 L 330 115 M 325 130 L 335 130 M 330 125 L 330 135 M 325 150 L 335 150 M 330 145 L 330 155 M 325 170 L 335 170 M 330 165 L 330 175 M 325 190 L 335 190 M 330 185 L 330 195 M 325 210 L 335 210 M 330 205 L 330 215 M 325 230 L 335 230 M 330 225 L 330 235 M 325 250 L 335 250 M 330 245 L 330 255 M 325 270 L 335 270 M 330 265 L 330 275 M 325 290 L 335 290 M 330 285 L 330 295 M 325 310 L 335 310 M 330 305 L 330 315 M 325 330 L 335 330 M 330 325 L 330 335 M 325 350 L 335 350 M 330 345 L 330 355 M 325 370 L 335 370 M 330 365 L 330 375 M 325 390 L 335 390 M 330 385 L 330 395 M 345 10 L 355 10 M 350 5 L 350 15 M 345 30 L 355 30 M 350 25 L 350 35 M 345 50 L 355 50 M 350 45 L 350 55 M 345 70 L 355 70 M 350 65 L 350 75 M 345 90 L 355 90 M 350 85 L 350 95 M 345 110 L 355 110 M 350 105 L 350 115 M 345 130 L 355 130 M 350 125 L 350 135 M 345 150 L 355 150 M 350 145 L 350 155 M 345 170 L 355 170 M 350 165 L 350 175 M 345 190 L 355 190 M 350 185 L 350 195 M 345 210 L 355 210 M 350 205 L 350 215 M 345 230 L 355 230 M 350 225 L 350 235 M 345 250 L 355 250 M 350 245 L 350 255 M 345 270 L 355 270 M 350 265 L 350 275 M 345 290 L 355 290 M 350 285 L 350 295 M 345 310 L 355 310 M 350 305 L 350 315 M 345 330 L 355 330 M 350 325 L 350 335 M 345 350 L 355 350 M 350 345 L 350 355 M 345 370 L 355 370 M 350 365 L 350 375 M 345 390 L 355 390 M 350 385 L 350 395 M 365 10 L 375 10 M 370 5 L 370 15 M 365 30 L 375 30 M 370 25 L 370 35 M 365 50 L 375 50 M 370 45 L 370 55 M 365 70 L 375 70 M 370 65 L 370 75 M 365 90 L 375 90 M 370 85 L 370 95 M 365 110 L 375 110 M 370 105 L 370 115 M 365 130 L 375 130 M 370 125 L 370 135 M 365 150 L 375 150 M 370 145 L 370 155 M 365 170 L 375 170 M 370 165 L 370 175 M 365 190 L 375 190 M 370 185 L 370 195 M 365 210 L 375 210 M 370 205 L 370 215 M 365 230 L 375 230 M 370 225 L 370 235 M 365 250 L 375 250 M 370 245 L 370 255 M 365 270 L 375 270 M 370 265 L 370 275 M 365 290 L 375 290 M 370 285 L 370 295 M 365 310 L 375 310 M 370 305 L 370 315 M 365 330 L 375 330 M 370 325 L 370 335 M 365 350 L 375 350 M 370 345 L 370 355 M 365 370 L 375 370 M 370 365 L 370 375 M 365 390 L 375 390 M 370 385 L 370 395 M 385 10 L 395 10 M 390 5 L 390 15 M 385 30 L 395 30 M 390 25 L 390 35 M 385 50 L 395 50 M 390 45 L 390 55 M 385 70 L 395 70 M 390 65 L 390 75 M 385 90 L 395 90 M 390 85 L 390 95 M 385 110 L 395 110 M 390 105 L 390 115 M 385 130 L 395 130 M 390 125 L 390 135 M 385 150 L 395 150 M 390 145 L 390 155 M 385 170 L 395 170 M 390 165 L 390 175 M 385 190 L 395 190 M 390 185 L 390 195 M 385 210 L 395 210 M 390 205 L 390 215 M 385 230 L 395 230 M 390 225 L 390 235 M 385 250 L 395 250 M 390 245 L 390 255 M 385 270 L 395 270 M 390 265 L 390 275 M 385 290 L 395 290 M 390 285 L 390 295 M 385 310 L 395 310 M 390 305 L 390 315 M 385 330 L 395 330 M 390 325 L 390 335 M 385 350 L 395 350 M 390 345 L 390 355 M 385 370 L 395 370 M 390 365 L 390 375 M 385 390 L 395 390 M 390 385 L 390 395" stroke-linecap="round"/></svg>
