<svg xmlns="http://www.w3.org/2000/svg" width="200" height="250"><rect stroke="black" stroke-width="5" x="10" y="10" width="30" height="30" fill="transparent"/><rect stroke="black" stroke-width="5" x="60" y="10" width="30" height="30" rx="10" ry="10" fill="transparent"/><circle stroke="red" stroke-width="5" cx="25" cy="75" r="20" fill="transparent"/><ellipse stroke="red" stroke-width="5" cx="75" cy="75" rx="20" ry="5" fill="transparent"/><line stroke="orange" stroke-width="5" x1="10" y1="110" x2="50" y2="150"/><polyline stroke="orange" stroke-width="5" points="60 110 65 120 70 115 75 130 80 125 85 140 90 135 95 150 100 145" fill="transparent"/><polygon stroke="green" stroke-width="5" points="50 160 55 180 70 180 60 190 65 205 50 195 35 205 40 190 30 180 45 180" fill="transparent"/><path stroke="blue" stroke-width="5" d="M 20 230 Q 40 205 50 230 T 90 230" fill="none"/></svg>
